<?xml version="1.0" encoding="UTF-8"?>
<svg width="140px" height="17px" viewBox="0 0 140 17" version="1.1" xmlns="http://www.w3.org/2000/svg" xmlns:xlink="http://www.w3.org/1999/xlink">
    <!-- Generator: Sketch 50.2 (55047) - http://www.bohemiancoding.com/sketch -->
    <title>Quorum Maker</title>
    <desc>Created with Sketch.</desc>
    <defs></defs>
    <g id="Page-1" stroke="none" stroke-width="1" fill="none" fill-rule="evenodd">
        <g id="1-CreateNetwork" transform="translate(-54.000000, -29.000000)" fill="#1B2136">
            <g id="Background">
                <g id="Logo" transform="translate(43.000000, 22.000000)">
                    <path d="M27.82,23 L19.28,23 C18.146661,23 17.1166713,22.8366683 16.19,22.51 C15.2633287,22.1833317 14.4700033,21.7100031 13.81,21.09 C13.1499967,20.4699969 12.6400018,19.7100045 12.28,18.81 C11.9199982,17.9099955 11.74,16.8866724 11.74,15.74 C11.74,14.6599946 11.9299981,13.6766711 12.31,12.79 C12.6900019,11.9033289 13.2199966,11.1400032 13.9,10.5 C14.5800034,9.8599968 15.3833287,9.3633351 16.31,9.01 C17.2366713,8.6566649 18.2399946,8.48 19.32,8.48 C20.4000054,8.48 21.3999954,8.6566649 22.32,9.01 C23.2400046,9.3633351 24.0366633,9.8599968 24.71,10.5 C25.3833367,11.1400032 25.9066648,11.9033289 26.28,12.79 C26.6533352,13.6766711 26.84,14.6599946 26.84,15.74 C26.84,16.3800032 26.7666674,16.966664 26.62,17.5 C26.4733326,18.033336 26.2833345,18.5166645 26.05,18.95 C25.8166655,19.3833355 25.5500015,19.7633317 25.25,20.09 C24.9499985,20.4166683 24.6400016,20.6933322 24.32,20.92 L24.32,20.96 L27.82,20.96 L27.82,23 Z M19.32,10.74 C18.6399966,10.74 18.0033363,10.8666654 17.41,11.12 C16.8166637,11.3733346 16.3066688,11.7199978 15.88,12.16 C15.4533312,12.6000022 15.1166679,13.1266636 14.87,13.74 C14.6233321,14.3533364 14.5,15.0199964 14.5,15.74 C14.5,16.5000038 14.6166655,17.1899969 14.85,17.81 C15.0833345,18.4300031 15.4099979,18.9599978 15.83,19.4 C16.2500021,19.8400022 16.7533304,20.1833321 17.34,20.43 C17.9266696,20.6766679 18.5733298,20.8 19.28,20.8 C19.9733368,20.8 20.6166637,20.6766679 21.21,20.43 C21.8033363,20.1833321 22.3133312,19.8400022 22.74,19.4 C23.1666688,18.9599978 23.4999988,18.4300031 23.74,17.81 C23.9800012,17.1899969 24.1,16.5000038 24.1,15.74 C24.1,15.0199964 23.9866678,14.3533364 23.76,13.74 C23.5333322,13.1266636 23.2100021,12.6000022 22.79,12.16 C22.3699979,11.7199978 21.8666696,11.3733346 21.28,11.12 C20.6933304,10.8666654 20.0400036,10.74 19.32,10.74 Z M38.24,23 L35.96,23 L35.96,21.46 L35.92,21.46 C35.7066656,21.9400024 35.3366693,22.3633315 34.81,22.73 C34.2833307,23.0966685 33.6600036,23.28 32.94,23.28 C32.3133302,23.28 31.7766689,23.1700011 31.33,22.95 C30.8833311,22.7299989 30.5166681,22.4400018 30.23,22.08 C29.9433319,21.7199982 29.733334,21.306669 29.6,20.84 C29.466666,20.373331 29.4,19.8933358 29.4,19.4 L29.4,13.4 L31.8,13.4 L31.8,18.72 C31.8,19.0000014 31.8199998,19.2933318 31.86,19.6 C31.9000002,19.9066682 31.986666,20.1833321 32.12,20.43 C32.253334,20.6766679 32.4366655,20.8799992 32.67,21.04 C32.9033345,21.2000008 33.2133314,21.28 33.6,21.28 C33.9733352,21.28 34.3033319,21.2033341 34.59,21.05 C34.8766681,20.8966659 35.1099991,20.7000012 35.29,20.46 C35.4700009,20.2199988 35.6066662,19.9433349 35.7,19.63 C35.7933338,19.3166651 35.84,19.0000016 35.84,18.68 L35.84,13.4 L38.24,13.4 L38.24,23 Z M40.56,18.16 C40.56,17.3999962 40.6966653,16.7100031 40.97,16.09 C41.2433347,15.4699969 41.613331,14.9400022 42.08,14.5 C42.546669,14.0599978 43.0999968,13.7200012 43.74,13.48 C44.3800032,13.2399988 45.0599964,13.12 45.78,13.12 C46.5000036,13.12 47.1799968,13.2399988 47.82,13.48 C48.4600032,13.7200012 49.013331,14.0599978 49.48,14.5 C49.946669,14.9400022 50.3166653,15.4699969 50.59,16.09 C50.8633347,16.7100031 51,17.3999962 51,18.16 C51,18.9200038 50.8633347,19.6133302 50.59,20.24 C50.3166653,20.8666698 49.946669,21.4033311 49.48,21.85 C49.013331,22.2966689 48.4600032,22.6466654 47.82,22.9 C47.1799968,23.1533346 46.5000036,23.28 45.78,23.28 C45.0599964,23.28 44.3800032,23.1533346 43.74,22.9 C43.0999968,22.6466654 42.546669,22.2966689 42.08,21.85 C41.613331,21.4033311 41.2433347,20.8666698 40.97,20.24 C40.6966653,19.6133302 40.56,18.9200038 40.56,18.16 Z M43,18.16 C43,18.5333352 43.0566661,18.9066648 43.17,19.28 C43.2833339,19.6533352 43.4533322,19.9866652 43.68,20.28 C43.9066678,20.5733348 44.1933316,20.8133324 44.54,21 C44.8866684,21.1866676 45.2999976,21.28 45.78,21.28 C46.2600024,21.28 46.6733316,21.1866676 47.02,21 C47.3666684,20.8133324 47.6533322,20.5733348 47.88,20.28 C48.1066678,19.9866652 48.2766661,19.6533352 48.39,19.28 C48.5033339,18.9066648 48.56,18.5333352 48.56,18.16 C48.56,17.7866648 48.5033339,17.4166685 48.39,17.05 C48.2766661,16.6833315 48.1066678,16.3533348 47.88,16.06 C47.6533322,15.7666652 47.3666684,15.5300009 47.02,15.35 C46.6733316,15.1699991 46.2600024,15.08 45.78,15.08 C45.2999976,15.08 44.8866684,15.1699991 44.54,15.35 C44.1933316,15.5300009 43.9066678,15.7666652 43.68,16.06 C43.4533322,16.3533348 43.2833339,16.6833315 43.17,17.05 C43.0566661,17.4166685 43,17.7866648 43,18.16 Z M53.32,13.4 L55.62,13.4 L55.62,15 L55.66,15 C55.926668,14.4399972 56.2999976,13.9866684 56.78,13.64 C57.2600024,13.2933316 57.8199968,13.12 58.46,13.12 C58.5533338,13.12 58.6533328,13.1233333 58.76,13.13 C58.8666672,13.1366667 58.9599996,13.1533332 59.04,13.18 L59.04,15.38 C58.8799992,15.3399998 58.7433339,15.3133334 58.63,15.3 C58.5166661,15.2866666 58.4066672,15.28 58.3,15.28 C57.7533306,15.28 57.313335,15.379999 56.98,15.58 C56.646665,15.780001 56.3866676,16.0199986 56.2,16.3 C56.0133324,16.5800014 55.886667,16.8666652 55.82,17.16 C55.753333,17.4533348 55.72,17.6866658 55.72,17.86 L55.72,23 L53.32,23 L53.32,13.4 Z M69.36,23 L67.08,23 L67.08,21.46 L67.04,21.46 C66.8266656,21.9400024 66.4566693,22.3633315 65.93,22.73 C65.4033307,23.0966685 64.7800036,23.28 64.06,23.28 C63.4333302,23.28 62.8966689,23.1700011 62.45,22.95 C62.0033311,22.7299989 61.6366681,22.4400018 61.35,22.08 C61.0633319,21.7199982 60.853334,21.306669 60.72,20.84 C60.586666,20.373331 60.52,19.8933358 60.52,19.4 L60.52,13.4 L62.92,13.4 L62.92,18.72 C62.92,19.0000014 62.9399998,19.2933318 62.98,19.6 C63.0200002,19.9066682 63.106666,20.1833321 63.24,20.43 C63.373334,20.6766679 63.5566655,20.8799992 63.79,21.04 C64.0233345,21.2000008 64.3333314,21.28 64.72,21.28 C65.0933352,21.28 65.4233319,21.2033341 65.71,21.05 C65.9966681,20.8966659 66.2299991,20.7000012 66.41,20.46 C66.5900009,20.2199988 66.7266662,19.9433349 66.82,19.63 C66.9133338,19.3166651 66.96,19.0000016 66.96,18.68 L66.96,13.4 L69.36,13.4 L69.36,23 Z M83.7,13.12 C84.3266698,13.12 84.8633311,13.2299989 85.31,13.45 C85.7566689,13.6700011 86.1233319,13.9599982 86.41,14.32 C86.6966681,14.6800018 86.906666,15.093331 87.04,15.56 C87.173334,16.026669 87.24,16.5066642 87.24,17 L87.24,23 L84.84,23 L84.84,17.68 C84.84,17.3999986 84.8200002,17.1066682 84.78,16.8 C84.7399998,16.4933318 84.653334,16.2166679 84.52,15.97 C84.386666,15.7233321 84.2033345,15.5200008 83.97,15.36 C83.7366655,15.1999992 83.4266686,15.12 83.04,15.12 C82.6666648,15.12 82.346668,15.1999992 82.08,15.36 C81.813332,15.5200008 81.5933342,15.7266654 81.42,15.98 C81.2466658,16.2333346 81.1200004,16.5166651 81.04,16.83 C80.9599996,17.1433349 80.92,17.4533318 80.92,17.76 L80.92,23 L78.52,23 L78.52,17.2 C78.52,16.599997 78.3766681,16.1033353 78.09,15.71 C77.8033319,15.3166647 77.3533364,15.12 76.74,15.12 C76.3799982,15.12 76.066668,15.1966659 75.8,15.35 C75.533332,15.5033341 75.3166675,15.6999988 75.15,15.94 C74.9833325,16.1800012 74.8566671,16.4566651 74.77,16.77 C74.6833329,17.0833349 74.64,17.3999984 74.64,17.72 L74.64,23 L72.24,23 L72.24,13.4 L74.52,13.4 L74.52,14.94 L74.56,14.94 C74.6666672,14.6999988 74.8099991,14.4733344 74.99,14.26 C75.1700009,14.0466656 75.3833321,13.8533342 75.63,13.68 C75.8766679,13.5066658 76.1599984,13.3700005 76.48,13.27 C76.8000016,13.1699995 77.1533314,13.12 77.54,13.12 C78.2866704,13.12 78.9066642,13.286665 79.4,13.62 C79.8933358,13.953335 80.273332,14.3933306 80.54,14.94 C80.8600016,14.3533304 81.286664,13.9033349 81.82,13.59 C82.353336,13.2766651 82.9799964,13.12 83.7,13.12 Z M102.48,20.56 L102.5,20.56 L107.24,8.84 L109.44,8.84 L109.44,23 L108,23 L108,10.7 L107.96,10.7 L102.84,23 L102.08,23 L96.96,10.7 L96.92,10.7 L96.92,23 L95.48,23 L95.48,8.84 L97.68,8.84 L102.48,20.56 Z M119.02,16.96 C119.02,16.1466626 118.806669,15.540002 118.38,15.14 C117.953331,14.739998 117.333337,14.54 116.52,14.54 C115.959997,14.54 115.440002,14.639999 114.96,14.84 C114.479998,15.040001 114.073335,15.306665 113.74,15.64 L112.98,14.74 C113.366669,14.3533314 113.876664,14.0333346 114.51,13.78 C115.143337,13.5266654 115.859996,13.4 116.66,13.4 C117.166669,13.4 117.639998,13.4699993 118.08,13.61 C118.520002,13.7500007 118.906665,13.9599986 119.24,14.24 C119.573335,14.5200014 119.833332,14.8733312 120.02,15.3 C120.206668,15.7266688 120.3,16.2266638 120.3,16.8 L120.3,20.9 C120.3,21.2600018 120.313333,21.6333314 120.34,22.02 C120.366667,22.4066686 120.406666,22.733332 120.46,23 L119.24,23 C119.2,22.7733322 119.166667,22.526668 119.14,22.26 C119.113333,21.993332 119.1,21.7333346 119.1,21.48 L119.06,21.48 C118.633331,22.1066698 118.150003,22.5566653 117.61,22.83 C117.069997,23.1033347 116.420004,23.24 115.66,23.24 C115.299998,23.24 114.930002,23.1900005 114.55,23.09 C114.169998,22.9899995 113.823335,22.8266678 113.51,22.6 C113.196665,22.3733322 112.936668,22.0800018 112.73,21.72 C112.523332,21.3599982 112.42,20.9200026 112.42,20.4 C112.42,19.6799964 112.603332,19.1100021 112.97,18.69 C113.336669,18.2699979 113.826664,17.9566677 114.44,17.75 C115.053336,17.5433323 115.756663,17.4100003 116.55,17.35 C117.343337,17.2899997 118.166662,17.26 119.02,17.26 L119.02,16.96 Z M118.62,18.32 C118.059997,18.32 117.49667,18.3433331 116.93,18.39 C116.363331,18.4366669 115.850002,18.5299993 115.39,18.67 C114.929998,18.8100007 114.553335,19.013332 114.26,19.28 C113.966665,19.546668 113.82,19.8999978 113.82,20.34 C113.82,20.673335 113.883333,20.9533322 114.01,21.18 C114.136667,21.4066678 114.306666,21.5899993 114.52,21.73 C114.733334,21.8700007 114.969999,21.9699997 115.23,22.03 C115.490001,22.0900003 115.753332,22.12 116.02,22.12 C116.500002,22.12 116.926665,22.0366675 117.3,21.87 C117.673335,21.7033325 117.986665,21.4766681 118.24,21.19 C118.493335,20.9033319 118.686666,20.5733352 118.82,20.2 C118.953334,19.8266648 119.02,19.4333354 119.02,19.02 L119.02,18.32 L118.62,18.32 Z M125.2,17.86 L125.26,17.86 L129.58,13.64 L131.54,13.64 L126.82,17.92 L132.02,23 L130.02,23 L125.26,18.08 L125.2,18.08 L125.2,23 L123.84,23 L123.84,7.88 L125.2,7.88 L125.2,17.86 Z M140.78,17.6 C140.74,16.7199956 140.456669,15.9900029 139.93,15.41 C139.403331,14.8299971 138.653338,14.54 137.68,14.54 C137.226664,14.54 136.806669,14.6233325 136.42,14.79 C136.033331,14.9566675 135.693335,15.1833319 135.4,15.47 C135.106665,15.7566681 134.873334,16.0833315 134.7,16.45 C134.526666,16.8166685 134.426667,17.199998 134.4,17.6 L140.78,17.6 Z M142.16,18.04 L142.16,18.34 C142.16,18.4466672 142.153333,18.5599994 142.14,18.68 L134.38,18.68 C134.393333,19.146669 134.486666,19.5866646 134.66,20 C134.833334,20.4133354 135.073332,20.7733318 135.38,21.08 C135.686668,21.3866682 136.046665,21.6299991 136.46,21.81 C136.873335,21.9900009 137.319998,22.08 137.8,22.08 C138.50667,22.08 139.116664,21.9166683 139.63,21.59 C140.143336,21.2633317 140.533332,20.8866688 140.8,20.46 L141.82,21.26 C141.259997,21.9666702 140.643337,22.4733318 139.97,22.78 C139.296663,23.0866682 138.573337,23.24 137.8,23.24 C137.106663,23.24 136.463336,23.1166679 135.87,22.87 C135.276664,22.6233321 134.766669,22.2800022 134.34,21.84 C133.913331,21.3999978 133.576668,20.880003 133.33,20.28 C133.083332,19.679997 132.96,19.0266702 132.96,18.32 C132.96,17.6133298 133.079999,16.960003 133.32,16.36 C133.560001,15.759997 133.893331,15.2400022 134.32,14.8 C134.746669,14.3599978 135.246664,14.0166679 135.82,13.77 C136.393336,13.5233321 137.01333,13.4 137.68,13.4 C138.413337,13.4 139.059997,13.5233321 139.62,13.77 C140.180003,14.0166679 140.646665,14.3499979 141.02,14.77 C141.393335,15.1900021 141.676666,15.6799972 141.87,16.24 C142.063334,16.8000028 142.16,17.3999968 142.16,18.04 Z M145.08,15.7 C145.08,15.4466654 145.073333,15.120002 145.06,14.72 C145.046667,14.319998 145.026667,13.9600016 145,13.64 L146.3,13.64 C146.326667,13.8933346 146.346667,14.1733318 146.36,14.48 C146.373333,14.7866682 146.38,15.039999 146.38,15.24 L146.42,15.24 C146.686668,14.6933306 147.086664,14.2500017 147.62,13.91 C148.153336,13.5699983 148.75333,13.4 149.42,13.4 C149.593334,13.4 149.749999,13.4066666 149.89,13.42 C150.030001,13.4333334 150.173333,13.4599998 150.32,13.5 L150.14,14.78 C150.06,14.7533332 149.926668,14.7266668 149.74,14.7 C149.553332,14.6733332 149.366668,14.66 149.18,14.66 C148.819998,14.66 148.473335,14.726666 148.14,14.86 C147.806665,14.993334 147.516668,15.2033319 147.27,15.49 C147.023332,15.7766681 146.823334,16.1433311 146.67,16.59 C146.516666,17.0366689 146.44,17.5733302 146.44,18.2 L146.44,23 L145.08,23 L145.08,15.7 Z" id="Quorum-Maker"></path>
                </g>
            </g>
        </g>
    </g>
</svg>